# xmcd CD database file
#
# Track frame offsets:
#	150
#	21039
#	34018
#	54129
#	64356
#	85786
#	107843
#	122703
#	136103
#	147048
#	160730
#	172868
#	199413
#	211733
#	233605
#
# Disc length: 3222 seconds
#
# Revision: 7
# Processed by: cddbd v1.5.2PL0 Copyright (c) Steve Scherf et al.
# Submitted via: CDex 1.51
#
DISCID=bd0c940f
DTITLE=Various Artist - House of Blues - Essential Blues 3 cd1
DYEAR=1999
DGENRE=Blues
TTITLE0=Luther Allison - You Can't Always Get What You Want
TTITLE1=Muddy Waters - Got My Mojo Working
TTITLE2=Otis Rush - You Fired Yourself
TTITLE3=Jimmy Rogers - Chicago Bound
TTITLE4=Johnny Adams - Up And Down World
TTITLE5=Magic Sam - I Need You So Bad
TTITLE6=Corey Harris - Jinx Blues
TTITLE7=Bobby Bland - Farther Up The Road
TTITLE8=Sony Boy Williamson - I Don't Know
TTITLE9=T Bone Walker - Call It Storny Monday (But Tuesday Is Just As Bad)
TTITLE10=Little Walter - My Babe
TTITLE11=Junior Wells - (I Can't Get No) Satisfaction
TTITLE12=John Lee Hooker - I'm In the Mood
TTITLE13=R.L. Burnsside - Shake'em On Down
TTITLE14=Mississippi John Hurt - Corrina Corrina
EXTD=The current disc in the database has Artist and Track Name backwards. YEAR: 1999
EXTT0=
EXTT1=
EXTT2=
EXTT3=
EXTT4=
EXTT5=
EXTT6=
EXTT7=
EXTT8=
EXTT9=
EXTT10=
EXTT11=
EXTT12=
EXTT13=
EXTT14=
PLAYORDER=
